<svg width="444" height="444" viewBox="0 0 444 444" fill="none" xmlns="http://www.w3.org/2000/svg">
<rect x="1" y="1" width="442" height="442" rx="40" fill="#7775D5" fill-opacity="0.1" stroke="#7775D5" stroke-width="2" stroke-linecap="round" stroke-dasharray="12 12"/>
<ellipse opacity="0.5" cx="232" cy="325.5" rx="112" ry="55.5" fill="#7775D5"/>
<path d="M287.198 314.863L280.971 316.718L280.422 312.269L287.047 311.701L287.198 314.863Z" fill="#57646F"/>
<rect x="205.567" y="204" width="97.4479" height="107" rx="14" transform="rotate(2.9827 205.567 204)" fill="#57646F"/>
<path d="M292 257.5L293 238.5L298.5 236L297.5 256L292 257.5Z" fill="#001B26"/>
<rect x="194.567" y="208" width="97.4479" height="107" rx="14" transform="rotate(2.9827 194.567 208)" fill="#798DA1"/>
<path d="M283 327.5C269 313.5 236 314 225 327.5C236 341 269 341.5 283 327.5Z" fill="#22208F"/>
<path d="M173 309C186.5 305 202.5 322 202.5 334C185.5 335 170.5 319 173 309Z" fill="#22208F"/>
<path d="M118 346C118 363.673 129.065 375.232 142.711 377.332C155.43 379.288 163 375 168.5 370L221.377 310.349C225.695 305.478 224.282 297.846 218.508 294.843L209.455 290.136C206.075 288.378 201.989 288.694 198.919 290.951L158.366 320.757C154.127 316.523 148.793 314 143 314C129.192 314 118 328.327 118 346Z" fill="#FADCC0"/>
<path d="M165.673 332.5C163.991 327.88 161.472 323.859 158.367 320.757" stroke="#F1A296" stroke-width="2" stroke-linecap="round"/>
<path d="M117.79 252.07C108.862 264.014 110.341 281.678 121.754 291.863C147.591 314.922 187.381 308.458 208.336 280.424C217.502 268.162 220.716 248.764 214.805 235.814C213.938 233.915 212.075 232.726 210.014 232.395C205.599 231.685 201.728 235.202 200.561 239.519C195.799 257.132 174.827 260.995 155.581 246.609C143.638 237.681 126.718 240.126 117.79 252.07Z" fill="#FFC6A6"/>
<path d="M213.724 270.884C215.065 267.687 216.096 264.305 216.785 260.874C218.55 252.079 218.068 242.964 214.805 235.814C213.938 233.915 212.075 232.726 210.014 232.395C205.599 231.685 201.728 235.202 200.561 239.519C200.155 241.021 199.631 242.424 199 243.723C197.834 246.124 196.303 248.174 194.478 249.856C201.6 254.647 209.807 263.165 213.724 270.884Z" fill="#5A57BD"/>
<path d="M194.478 249.856C201.6 254.647 209.807 263.165 213.724 270.884C215.065 267.687 216.096 264.305 216.785 260.874L216.911 260.221C213.724 255 206 247 199.106 243.5L199 243.723C197.834 246.124 196.303 248.174 194.478 249.856Z" fill="#F48F1B"/>
<path d="M194.108 293.519L207.343 234.696C207.437 234.279 207.784 233.968 208.208 233.921L265.026 227.608C265.567 227.548 266.056 227.932 266.128 228.471L275.437 299.027C275.477 299.326 275.38 299.628 275.169 299.844C256.109 319.369 213.883 317.335 194.317 294.377C194.116 294.141 194.039 293.822 194.108 293.519Z" fill="#5A57BD"/>
<path d="M171.036 311.445C183.716 308.701 198.155 323.596 199.411 335.128L204.352 329.554C202.75 319.26 189.134 305.173 178.392 306.038L171.036 311.445Z" fill="#FFC6A6"/>
<path d="M202.5 334C202.5 322 186.5 305 173 309L195.499 293L221.999 309L202.5 334Z" fill="#5A57BD"/>
<path d="M253.5 397C272.001 397 287 382.002 287 363.5C287 360.907 286.705 358.383 286.147 355.959L286.126 355.85L274.83 299.621C274.173 296.352 271.302 294 267.967 294H243.25C240.101 294 237.339 296.103 236.502 299.139L221.397 353.911L221.354 354.038C220.473 357.038 220 360.214 220 363.5C220 382.002 234.998 397 253.5 397Z" fill="#FADCC0"/>
<path d="M202.5 334C202.5 322 186.5 305 173 309L180.154 303.912L180.906 303.377C192 302 206.454 317.148 207.454 327.648L207.071 328.138L202.5 334Z" fill="#F48F1B"/>
<path d="M225 327.5C236 314 269 313.5 283 327.5L276 292H234.5L225 327.5Z" fill="#5A57BD"/>
<path d="M198.769 272.802L194.108 293.519C194.04 293.822 194.116 294.141 194.318 294.377C198.464 299.243 203.629 303.169 209.375 306.148C212.268 302.55 214 297.977 214 293C214 283.403 207.562 275.309 198.769 272.802Z" fill="#7775D5"/>
<path d="M225 327.5C236 314 269 313.5 283 327.5L281.179 318.269L281.045 317.584C267.045 303.584 235.087 306.41 227.699 317.41L227.5 318.158L225 327.5Z" fill="#F48F1B"/>
<path d="M227.103 333.219C239.449 322.286 268.183 322.327 281.835 334.492L279.792 324.321C266.452 312.724 239.872 314.241 229.981 322.785L227.103 333.219Z" fill="#FFC6A6"/>
<path d="M281 350C274.236 339.564 264.421 333 253.5 333C242.578 333 232.763 339.564 226 350" stroke="#F1A296" stroke-width="2" stroke-linecap="round"/>
<path d="M229.5 249C234.746 249 239 244.075 239 238C239 235.228 238.114 232.695 236.652 230.761L221.286 232.468C220.468 234.093 220 235.983 220 238C220 244.075 224.253 249 229.5 249Z" fill="#FFC6A6"/>
<path d="M141.942 109.966C134.35 127.997 141.546 148.229 156.499 154.5L169.467 149.186L301.334 177.5C313.158 173.255 322.364 160.157 323.05 143.501C323.095 142.398 322.195 141.5 321.091 141.5H309.439C321.823 118.015 305.707 90.5324 292.926 87.5088L286.834 103.395C279.334 88.5 260.834 65.5 241.834 57.5C234.145 59.4222 227.048 66.0737 223.269 74.5C214.254 69.7222 197.874 56.7267 190.764 45.5472C190.213 44.68 189.115 44.3114 188.193 44.7642C164.634 56.3247 151.124 88.7723 152.251 113.5L144.697 109.088C143.692 108.501 142.394 108.893 141.942 109.966Z" fill="#E01A53"/>
<circle cx="231" cy="164" r="76" fill="#FADCC0"/>
<path fill-rule="evenodd" clip-rule="evenodd" d="M262.564 233.156C288.782 221.17 306.999 194.712 306.999 164C306.999 122.026 272.973 88 230.999 88C201.93 88 176.673 104.32 163.89 128.298C176.851 115.734 194.522 108 213.999 108C253.763 108 285.999 140.235 285.999 180C285.999 201.05 276.965 219.99 262.564 233.156Z" fill="#FFC6A6"/>
<path d="M155.124 168.37C156.844 170.368 159.376 172.5 162.224 174.47C164.141 172.406 166.444 170.788 169.049 169.771L169.046 169.762L171.697 168.388C172.051 168.189 172.412 168.002 172.78 167.827L173.078 167.673L173.083 167.687C174.216 167.175 175.41 166.779 176.658 166.513C187.781 164.146 199.024 172.984 201.771 186.254C202.164 188.153 202.362 190.039 202.379 191.885C205.733 192.79 209.346 193.388 212.435 193.602C214.483 187.644 218.606 182.896 224.049 180.771L224.046 180.762L226.697 179.388C227.051 179.189 227.412 179.002 227.78 178.827L228.078 178.673L228.083 178.687C229.216 178.175 230.41 177.779 231.658 177.513C242.597 175.185 253.651 183.694 256.627 196.597C265.972 196.323 279.976 194.327 285.918 191.272C286.771 190.834 288.285 191.524 288.285 192.483V200.667C288.285 200.885 288.223 201.093 288.076 201.253C284.536 205.118 267.771 207.729 256.942 208.088C255.581 215.602 251.142 221.849 244.849 224.54L244.85 224.542L241.447 226.265C239.982 227.059 238.402 227.652 236.722 228.01C225.599 230.377 214.356 221.539 211.61 208.269C211.385 207.186 211.225 206.107 211.125 205.038C207.678 204.734 203.693 203.985 200.174 202.89C198.03 207.736 194.431 211.581 189.849 213.54L189.85 213.542L186.447 215.265C184.982 216.059 183.402 216.652 181.722 217.01C180.1 217.355 178.475 217.462 176.874 217.351C164.302 204.598 156.204 187.423 155.124 168.37Z" fill="#FFC6A6"/>
<path d="M216.5 189.5C210.18 189.979 197.5 187.5 193 183.5L192.5 195C197 199 209.68 201.479 216 201L216.5 189.5Z" fill="#010101"/>
<path d="M154.493 163.467C158.745 169.016 170.042 175.955 177.074 177.528C177.674 177.662 178.055 178.273 177.872 178.86L175.053 187.906C174.907 188.375 174.442 188.671 173.958 188.585C166.942 187.335 157.466 182.906 154.026 177.85C153.247 176.704 153.061 175.291 153.061 173.906L153.061 163.865C153.061 163.305 154.152 163.022 154.493 163.467Z" fill="#010101"/>
<path d="M277.396 168.306C228.806 182.875 171.55 173.601 151.222 143.091C150.986 142.738 151.008 142.276 151.268 141.941L156.218 135.547C156.279 135.469 156.327 135.382 156.362 135.289L166.306 108.986C166.383 108.784 166.522 108.612 166.704 108.496L199.487 87.6053C199.629 87.5148 199.791 87.4616 199.96 87.4507L234.777 85.194C234.885 85.1869 234.994 85.1976 235.099 85.2256L275.22 95.9253C275.402 95.9741 275.568 96.0738 275.696 96.2127L299.885 122.376C299.961 122.458 300.022 122.552 300.067 122.655L311.867 149.697C311.953 149.894 311.973 150.113 311.925 150.322L307.525 169.389C307.508 169.463 307.5 169.538 307.499 169.613C307.412 179.26 296.23 190.254 286.032 190.964C285.469 191.003 285.015 190.532 285.034 189.967L285.544 174.39C285.683 170.138 281.47 167.084 277.396 168.306Z" fill="#E01A53"/>
<path d="M111 247.294L140.227 237L172.787 249.716L177 288.396L147.978 306.41L116.617 308L111 247.294Z" fill="#57646F"/>
<path d="M147.979 306.41L140.227 237L172.787 249.716L177 288.396L147.979 306.41Z" fill="#798B9F"/>
<path d="M152.848 293L148 250L168.365 257.878L171 281.84L152.848 293Z" fill="#A9BDC4"/>
<path d="M155.161 286L152 257L165.281 262.313L167 278.473L155.161 286Z" fill="#CADEE5"/>
<path d="M117 268L115.5 252L121.5 250.286L136.5 246L139 266.5L124 267.523L117 268Z" fill="#001B26"/>
<path d="M117 268L115.5 252L121.5 250.286L124 267.523L117 268Z" fill="#010101"/>
<path d="M120.5 304.5L118 274.5L125 274.182L140 273.5L144.5 303.5L128 304.188L120.5 304.5Z" fill="#001B26"/>
<path d="M120.5 304.5L118 274.5L125 274.182L128 304.188L120.5 304.5Z" fill="#010101"/>
<path d="M199 219.094C201.762 221.853 206.924 223.389 211.314 221.983" stroke="#F1A296" stroke-width="4" stroke-linecap="round"/>
<path d="M285.918 187.142C278.546 190.932 258.764 193.093 250.867 192.357C250.254 192.3 249.715 192.773 249.715 193.388V202.862C249.715 203.354 250.07 203.774 250.559 203.827C259.199 204.753 283.708 201.893 288.075 197.123C288.222 196.963 288.284 196.755 288.284 196.537V188.353C288.284 187.394 286.771 186.704 285.918 187.142Z" fill="#010101"/>
<path d="M244.849 220.41C254.006 216.494 259.239 205.049 256.771 193.124C254.024 179.854 242.781 171.016 231.658 173.384C230.409 173.649 229.215 174.045 228.083 174.557L228.078 174.543L227.78 174.697C227.412 174.872 227.051 175.059 226.697 175.258L224.045 176.632L224.169 176.973C217.722 182.167 214.436 191.766 216.491 201.698C219.133 214.459 229.632 223.122 240.325 221.662L240.644 222.542L244.849 220.412L244.849 220.41Z" fill="#010101"/>
<path d="M251.889 195.566C254.635 208.836 247.845 221.512 236.722 223.88C225.599 226.247 214.356 217.409 211.609 204.139C208.863 190.869 215.653 178.192 226.776 175.825C237.899 173.457 249.142 182.295 251.889 195.566Z" fill="#57646F"/>
<path d="M248.334 196.423C250.596 207.039 245.004 217.18 235.844 219.074C226.684 220.968 217.425 213.897 215.163 203.281C212.901 192.665 218.493 182.524 227.653 180.63C236.813 178.736 246.072 185.807 248.334 196.423Z" fill="#A6CE37"/>
<path d="M215.492 192.637L227.457 180.672C227.522 180.658 227.587 180.644 227.653 180.63C233.401 179.441 239.189 181.783 243.261 186.316L218.463 211.114C216.933 208.846 215.784 206.197 215.163 203.281C214.371 199.564 214.542 195.904 215.492 192.637Z" fill="#E4F0C3"/>
<path d="M220.301 213.46L245.089 188.671C246.592 190.922 247.721 193.542 248.335 196.423C248.468 197.051 248.575 197.678 248.655 198.301L228.281 218.675C225.301 217.745 222.545 215.933 220.301 213.46Z" fill="#E4F0C3"/>
<path d="M301 306C302.5 327 279.456 337.186 266 326L257.5 330C276.5 352 314.5 336.5 310 306C308.755 297.568 302.018 291.524 295.111 287.994C292.764 286.794 290.067 288.352 289.59 290.945C289.241 292.841 290.215 294.716 291.914 295.629C296.524 298.105 300.659 301.238 301 306Z" fill="#798DA1"/>
<g filter="url(#filter0_df_263_2568)">
<path d="M171.29 246.616C165.118 251.273 151.805 251.744 150.948 250.544C150.091 249.345 154.969 237.219 161.141 232.562C167.314 227.905 175.04 227.38 177.701 230.907C180.362 234.434 177.463 241.959 171.29 246.616Z" fill="#7AC6EA"/>
</g>
<path d="M254.5 332.5L251.5 330.5L268 322L269 326L254.5 332.5Z" fill="#57646F"/>
<g filter="url(#filter1_df_263_2568)">
<path d="M174.343 239.148C171.107 241.59 164.127 241.836 163.678 241.208C163.229 240.579 165.786 234.222 169.022 231.78C172.258 229.338 176.309 229.063 177.704 230.912C179.099 232.761 177.579 236.706 174.343 239.148Z" fill="#D2EDF4"/>
</g>
<path d="M189.849 209.41C199.006 205.494 204.239 194.049 201.771 182.124C199.024 168.854 187.781 160.016 176.658 162.384C175.409 162.649 174.215 163.045 173.083 163.557L173.078 163.543L172.78 163.697C172.412 163.872 172.051 164.059 171.697 164.258L169.045 165.632L169.169 165.973C162.722 171.167 159.436 180.766 161.491 190.698C164.133 203.459 174.632 212.122 185.325 210.662L185.644 211.542L189.849 209.412L189.849 209.41Z" fill="#010101"/>
<path d="M196.889 184.566C199.635 197.836 192.845 210.512 181.722 212.88C170.599 215.247 159.356 206.409 156.609 193.139C153.863 179.869 160.653 167.192 171.776 164.825C182.899 162.457 194.142 171.295 196.889 184.566Z" fill="#57646F"/>
<path d="M193.334 185.423C195.596 196.039 190.004 206.18 180.844 208.074C171.684 209.968 162.425 202.897 160.163 192.281C157.901 181.665 163.493 171.524 172.653 169.63C181.813 167.736 191.072 174.807 193.334 185.423Z" fill="#A6CE37"/>
<path d="M160.492 181.637L172.457 169.672C172.522 169.658 172.587 169.644 172.653 169.63C178.401 168.441 184.189 170.783 188.261 175.316L163.463 200.114C161.933 197.846 160.784 195.197 160.163 192.281C159.371 188.564 159.542 184.904 160.492 181.637Z" fill="#E4F0C3"/>
<path d="M165.301 202.46L190.089 177.671C191.592 179.922 192.721 182.542 193.335 185.423C193.468 186.051 193.575 186.678 193.655 187.301L173.281 207.675C170.301 206.745 167.545 204.933 165.301 202.46Z" fill="#E4F0C3"/>
<path d="M176 224.5C187.5 215 200.5 224.5 211 242.5L218.5 251L271.5 318V322L248 333L244 331L207 259L203.5 248.5C195.5 237.5 189.5 230 183 234L182.554 234.446C180.906 236.093 178.205 235.989 176.688 234.22L173.964 231.042C172.23 229.019 172.921 225.899 175.346 224.797L176 224.5Z" fill="#798DA1"/>
<path d="M181 224.5C182.833 223.5 185.111 223.278 187.5 223.704M200.5 233C198.547 229.746 195.653 227.15 192.553 225.5" stroke="#A9BDC4" stroke-width="2" stroke-linecap="round"/>
<path d="M212.143 261.156L220 275.013" stroke="#A9BDC4" stroke-width="3" stroke-linecap="round"/>
<path d="M183 234L176 224.5L175.346 224.797C172.921 225.899 172.23 229.019 173.964 231.042L176.688 234.22C178.205 235.989 180.906 236.093 182.554 234.446L183 234Z" fill="#001B26"/>
<path d="M211 242.5L203.5 248.5L207 259L218.5 251L211 242.5Z" fill="#001B26"/>
<path d="M204 299C204 313.912 215.76 327.175 231 328.5C265.5 331.5 293.5 302.5 293.5 267.5C293.5 252.19 284.46 234.729 271.972 227.895C270.141 226.893 267.937 227.057 266.088 228.025C262.127 230.1 261.132 235.235 262.782 239.391C269.513 256.35 255.027 272 231 272C216.088 272 204 284.088 204 299Z" fill="#FADCC0"/>
<path d="M209.207 315.579C213.608 319.136 219.038 321.482 225 322C259.5 325 287.5 296 287.5 261C287.5 250.96 283.612 239.994 277.414 231.708C287.002 239.993 293.5 254.52 293.5 267.5C293.5 302.5 265.5 331.5 231 328.5C221.914 327.71 214.064 322.676 209.207 315.579Z" fill="#FFC6A6"/>
<path d="M293.472 266.03C283.344 268.127 269.198 265.342 261.029 258.811C264.713 253.248 265.576 246.432 262.781 239.391C261.132 235.235 262.127 230.1 266.087 228.025C267.937 227.057 270.141 226.893 271.972 227.895C284.062 234.511 292.919 251.088 293.472 266.03Z" fill="#7775D5"/>
<path d="M261.029 258.811C269.198 265.343 283.344 268.127 293.472 266.03C293.367 263.192 292.963 260.296 292.293 257.419L292 257.5C283.028 259.817 271.611 257.429 264 252L263.964 251.967C263.426 254.392 262.432 256.693 261.029 258.811Z" fill="#FCB213"/>
<defs>
<filter id="filter0_df_263_2568" x="138.85" y="216.611" width="51.8401" height="46.494" filterUnits="userSpaceOnUse" color-interpolation-filters="sRGB">
<feFlood flood-opacity="0" result="BackgroundImageFix"/>
<feColorMatrix in="SourceAlpha" type="matrix" values="0 0 0 0 0 0 0 0 0 0 0 0 0 0 0 0 0 0 127 0" result="hardAlpha"/>
<feOffset/>
<feGaussianBlur stdDeviation="6"/>
<feComposite in2="hardAlpha" operator="out"/>
<feColorMatrix type="matrix" values="0 0 0 0 0.478431 0 0 0 0 0.776471 0 0 0 0 0.917647 0 0 0 0.8 0"/>
<feBlend mode="normal" in2="BackgroundImageFix" result="effect1_dropShadow_263_2568"/>
<feBlend mode="normal" in="SourceGraphic" in2="effect1_dropShadow_263_2568" result="shape"/>
<feGaussianBlur stdDeviation="1" result="effect2_foregroundBlur_263_2568"/>
</filter>
<filter id="filter1_df_263_2568" x="156.027" y="222.108" width="29.7962" height="26.9934" filterUnits="userSpaceOnUse" color-interpolation-filters="sRGB">
<feFlood flood-opacity="0" result="BackgroundImageFix"/>
<feColorMatrix in="SourceAlpha" type="matrix" values="0 0 0 0 0 0 0 0 0 0 0 0 0 0 0 0 0 0 127 0" result="hardAlpha"/>
<feOffset/>
<feGaussianBlur stdDeviation="3.8"/>
<feComposite in2="hardAlpha" operator="out"/>
<feColorMatrix type="matrix" values="0 0 0 0 0.823529 0 0 0 0 0.929412 0 0 0 0 0.956863 0 0 0 0.5 0"/>
<feBlend mode="normal" in2="BackgroundImageFix" result="effect1_dropShadow_263_2568"/>
<feBlend mode="normal" in="SourceGraphic" in2="effect1_dropShadow_263_2568" result="shape"/>
<feGaussianBlur stdDeviation="0.5" result="effect2_foregroundBlur_263_2568"/>
</filter>
</defs>
</svg>
