<svg width="25" height="24" viewBox="0 0 25 24" fill="none" xmlns="http://www.w3.org/2000/svg">
<g clip-path="url(#clip0_2307_1850)">
<path d="M12.5 22L3.308 12.808C1.128 10.24 1.242 6.38799 3.661 3.96799C4.82102 2.808 6.37675 2.12954 8.01611 2.06871C9.65547 2.00787 11.2572 2.56917 12.5 3.63999C13.7415 2.56917 15.3419 2.00708 16.9803 2.06636C18.6188 2.12564 20.1743 2.80191 21.3353 3.95965C22.4962 5.11739 23.1767 6.67108 23.2404 8.30938C23.3042 9.94767 22.7464 11.5495 21.679 12.794L12.5 22ZM20.162 11.491C20.9008 10.6294 21.2868 9.52043 21.2426 8.38629C21.1983 7.25215 20.7272 6.17662 19.9235 5.37519C19.1198 4.57377 18.0429 4.10564 16.9086 4.06462C15.7744 4.0236 14.6665 4.41271 13.807 5.15399L12.5 6.28199L11.193 5.15399C10.3335 4.41271 9.22564 4.0236 8.09138 4.06462C6.95712 4.10564 5.88026 4.57377 5.07655 5.37519C4.27285 6.17662 3.80167 7.25215 3.75744 8.38629C3.7132 9.52043 4.09917 10.6294 4.838 11.491L4.952 11.623L12.5 19.172L20.048 11.623L20.162 11.491Z" fill="#7775D5"/>
</g>
<defs>
<clipPath id="clip0_2307_1850">
<rect width="24" height="24" fill="white" transform="translate(0.5)"/>
</clipPath>
</defs>
</svg>
