<svg width="134" height="48" viewBox="0 0 134 48" fill="none" xmlns="http://www.w3.org/2000/svg">
<circle cx="24" cy="24" r="24" fill="#7775D5"/>
<path d="M23.1687 32.3412C23.0576 32.561 22.8322 32.6996 22.5859 32.6996H18.3396C17.9809 32.6996 17.6894 32.4103 17.6865 32.0516L17.6405 26.2442C17.635 25.5422 16.677 25.3421 16.391 25.9833L13.5677 32.3125C13.4626 32.5479 13.229 32.6996 12.9712 32.6996H8.71066C8.36662 32.6996 8.08157 32.4327 8.05898 32.0894L7.04581 16.696C7.02101 16.3192 7.31992 16 7.69749 16H11.8612C12.2244 16 12.5178 16.2963 12.5142 16.6595L12.4502 23.2042C12.4433 23.9063 13.3978 24.1231 13.695 23.487L17.0161 16.3767C17.1234 16.1469 17.3541 16 17.6078 16H20.3533C20.7072 16 20.9967 16.2818 21.0062 16.6355L21.1837 23.2345C21.2025 23.9349 22.1613 24.1181 22.437 23.4739L25.4659 16.3961C25.5688 16.1558 25.805 16 26.0663 16H30.3689C30.8557 16 31.1714 16.5134 30.9517 16.9478L23.1687 32.3412Z" fill="white"/>
<path d="M34.7799 33C30.8829 33 28.185 31.0471 28.185 27.4919C28.185 23.6362 31.1327 20.3063 35.3544 20.3063C38.3521 20.3063 41 22.134 41 25.8144C41 26.4084 40.9225 27.0671 40.8326 27.5579C40.7797 27.8466 40.522 28.0427 40.2285 28.0427H32.6566C32.6427 28.0427 32.6315 28.0539 32.6315 28.0677C32.6315 28.243 33.356 29.57 35.1046 29.57C35.7439 29.57 36.4625 29.4678 37.0315 29.2863C37.4149 29.164 37.8826 29.2997 38.0535 29.6641L38.8572 31.3776C38.9968 31.6753 38.8946 32.0336 38.6004 32.1803C37.4492 32.7542 36.0391 33 34.7799 33ZM33.0562 25.1885H37.0281V25.1134C37.0281 24.7629 36.6034 23.7364 35.1795 23.7364C33.9805 23.7364 33.2061 24.6627 33.0562 25.1885Z" fill="white"/>
<circle cx="37.5" cy="15.5" r="2.5" fill="white"/>
<path d="M73.632 32H69.96V24.944C69.96 24.056 69.528 23.384 68.424 23.384C67.416 23.384 66.696 24.032 66.336 24.512V32H62.64V24.944C62.64 24.056 62.232 23.384 61.104 23.384C60.12 23.384 59.424 24.032 59.04 24.512V32H55.344V20.408H59.04V21.824C59.544 21.152 61.032 20.12 62.856 20.12C64.512 20.12 65.664 20.816 66.144 22.184C66.816 21.176 68.328 20.12 70.152 20.12C72.288 20.12 73.632 21.224 73.632 23.6V32ZM87.12 32H83.424V30.848C82.704 31.712 81.312 32.288 79.824 32.288C78.048 32.288 75.84 31.088 75.84 28.472C75.84 25.664 78.048 24.752 79.824 24.752C81.36 24.752 82.728 25.232 83.424 26.096V24.704C83.424 23.696 82.56 23.024 81.072 23.024C79.92 23.024 78.72 23.456 77.784 24.248L76.464 21.92C77.952 20.648 79.944 20.12 81.72 20.12C84.504 20.12 87.12 21.152 87.12 24.752V32ZM81.36 29.864C82.176 29.864 83.04 29.576 83.424 29.024V27.992C83.04 27.464 82.176 27.176 81.36 27.176C80.376 27.176 79.512 27.608 79.512 28.52C79.512 29.432 80.376 29.864 81.36 29.864ZM93.7387 32H90.0427V20.408H93.7387V21.824C94.5067 20.888 95.9707 20.096 97.3628 20.096V23.648C97.1468 23.6 96.8347 23.552 96.4507 23.552C95.4908 23.552 94.2187 23.96 93.7387 24.608V32ZM111.187 32H106.627L104.083 27.896L102.979 29.216V32H99.2828V15.992H102.979V25.04L106.507 20.408H110.971L106.699 25.688L111.187 32ZM118.005 32.288C114.429 32.288 111.669 29.96 111.669 26.192C111.669 22.832 114.213 20.12 117.837 20.12C121.269 20.12 123.765 22.64 123.765 26.576V27.368H115.509C115.725 28.448 116.733 29.432 118.413 29.432C119.229 29.432 120.645 29.072 121.293 28.448L122.853 30.752C121.701 31.784 119.781 32.288 118.005 32.288ZM120.237 24.968C120.141 24.152 119.541 22.976 117.837 22.976C116.229 22.976 115.605 24.128 115.461 24.968H120.237ZM130.217 32.288C127.865 32.288 126.593 31.112 126.593 28.88V23.624H124.673V20.408H126.593V17.24H130.265V20.408H132.617V23.624H130.265V27.848C130.265 28.52 130.649 29.024 131.297 29.024C131.705 29.024 132.113 28.88 132.233 28.736L132.953 31.52C132.497 31.952 131.585 32.288 130.217 32.288Z" fill="#1B2730"/>
</svg>
